<svg xmlns="http://www.w3.org/2000/svg" viewBox="0 0 37.74 37.74"><defs><style>.cls-1{fill:#231f20;}.cls-2{fill:#fff;}.cls-3{fill:none;}</style></defs><g id="Layer_2" data-name="Layer 2"><g id="Single_Arm" data-name="Single Arm"><path class="cls-1" d="M18.87,32.08a.75.75,0,0,1-.38-.1l-1.85-1.07a.75.75,0,0,1,0-1.3l7.06-4.08a.23.23,0,0,0,.13-.21.25.25,0,0,0-.12-.22L21.85,24a.75.75,0,0,1-.38-.65V21.24a.75.75,0,0,1,1.13-.65l7.06,4.08a.74.74,0,0,1,0,1.29L19.24,32A.69.69,0,0,1,18.87,32.08Z"/><path class="cls-2" d="M22.22,20.74a.45.45,0,0,1,.25.07l7.07,4.07a.5.5,0,0,1,0,.87c-3.33,1.92-7.15,4.12-10.42,6a.57.57,0,0,1-.25.06.45.45,0,0,1-.25-.07l-1.86-1.07a.5.5,0,0,1,0-.86l7.07-4.08a.5.5,0,0,0,0-.86L22,23.81a.5.5,0,0,1-.25-.43V21.24a.5.5,0,0,1,.5-.5m0-.5h0a1,1,0,0,0-.69.28,1,1,0,0,0-.31.72v2.14a1,1,0,0,0,.5.87l1.86,1.07-6.91,4-.16.09a1,1,0,0,0-.5.86,1,1,0,0,0,.5.87l1.86,1.07a1,1,0,0,0,.5.13,1,1,0,0,0,.5-.13l6.14-3.55,4.28-2.47a1,1,0,0,0,.5-.86,1,1,0,0,0-.5-.87l-.1-.06-7-4a1,1,0,0,0-.5-.13Z"/><path class="cls-1" d="M29.79,15.31a.75.75,0,0,1-.38-.1l-7.06-4.08a.28.28,0,0,0-.13,0,.25.25,0,0,0-.25.25v2.14a.74.74,0,0,1-.37.65l-1.86,1.07a.69.69,0,0,1-.37.1.73.73,0,0,1-.52-.21.73.73,0,0,1-.23-.54V6.41a.75.75,0,0,1,.75-.75.69.69,0,0,1,.37.1l10.42,6a.78.78,0,0,1,.38.65v2.14A.75.75,0,0,1,29.79,15.31Z"/><path class="cls-2" d="M19.37,5.91a.57.57,0,0,1,.25.06l7.81,4.52h0L30,12a.5.5,0,0,1,.25.43v2.14a.49.49,0,0,1-.5.5.54.54,0,0,1-.25-.06l-5-2.87h0l-2.11-1.21a.45.45,0,0,0-.25-.07.5.5,0,0,0-.5.5v2.14a.5.5,0,0,1-.25.44L19.62,15a.57.57,0,0,1-.25.06.49.49,0,0,1-.5-.5V6.41a.5.5,0,0,1,.5-.5m0-.5h0a1,1,0,0,0-1,1v8.15a1,1,0,0,0,1,1,1,1,0,0,0,.5-.13l1.85-1.07a1,1,0,0,0,.5-.87V11.35l2.11,1.22,5,2.86a1,1,0,0,0,.5.13,1,1,0,0,0,1-1V12.42a1,1,0,0,0-.5-.86l-2.61-1.51-4-2.33L19.87,5.54a1,1,0,0,0-.5-.13Z"/><path class="cls-1" d="M29.79,21.91a.86.86,0,0,1-.38-.1l-7.06-4.08a.74.74,0,0,1-.38-.65.73.73,0,0,1,.38-.65l1.85-1.07a.75.75,0,0,1,.38-.1.69.69,0,0,1,.37.1l5.21,3a.75.75,0,0,1,.38.64v2.15A.76.76,0,0,1,29.79,21.91Z"/><path class="cls-2" d="M24.58,15.51a.57.57,0,0,1,.25.06l2.6,1.51h0L30,18.58a.52.52,0,0,1,.25.43v2.15a.5.5,0,0,1-.5.5.45.45,0,0,1-.25-.07l-2.11-1.22h0l-2.85-1.64-2.11-1.22a.51.51,0,0,1,0-.87l1.86-1.07a.54.54,0,0,1,.25-.06m0-.5a1,1,0,0,0-.5.13l-1.86,1.07a1,1,0,0,0-.5.87,1,1,0,0,0,.5.86l2.11,1.22,2.85,1.65L29.29,22a1,1,0,0,0,.5.14,1,1,0,0,0,1-1V19a1,1,0,0,0-.5-.86l-2.61-1.51-2.6-1.5a1,1,0,0,0-.5-.13Z"/><path class="cls-1" d="M8,25.2a.75.75,0,0,1-.75-.75v-12a.78.78,0,0,1,.38-.66L9.43,10.7a.86.86,0,0,1,.38-.1.76.76,0,0,1,.75.75v8.16a.25.25,0,0,0,.25.25.19.19,0,0,0,.12,0l1.86-1.07a.79.79,0,0,1,.37-.1.86.86,0,0,1,.38.1l1.85,1.07a.74.74,0,0,1,.38.65.73.73,0,0,1-.38.65L8.33,25.1A.75.75,0,0,1,8,25.2Z"/><path class="cls-2" d="M9.81,10.85a.5.5,0,0,1,.5.5v8.16a.5.5,0,0,0,.5.5.47.47,0,0,0,.25-.07l1.85-1.07a.48.48,0,0,1,.5,0l1.85,1.07a.5.5,0,0,1,0,.87L8.2,24.88A.45.45,0,0,1,8,25a.5.5,0,0,1-.5-.5v-12A.51.51,0,0,1,7.7,12l1.86-1.07a.45.45,0,0,1,.25-.07m0-.5a1,1,0,0,0-.5.14L7.45,11.56a1,1,0,0,0-.5.87v12a1,1,0,0,0,1,1,1,1,0,0,0,.5-.13L9,25l6.55-3.78a1,1,0,0,0,.5-.87,1,1,0,0,0-.51-.86l-1.85-1.07a1,1,0,0,0-.5-.14,1,1,0,0,0-.5.14l-1.85,1.07V11.35a1,1,0,0,0-1-1Z"/><path class="cls-1" d="M15.51,17a.71.71,0,0,1-.37-.1l-1.85-1.07a.73.73,0,0,1-.38-.65v-6a.73.73,0,0,1,.38-.65l1.85-1.07a.72.72,0,0,1,.37-.11.76.76,0,0,1,.76.76v8.15A.75.75,0,0,1,15.51,17Z"/><path class="cls-2" d="M15.51,7.55a.51.51,0,0,1,.51.51v8.15a.5.5,0,0,1-.51.5.53.53,0,0,1-.24-.06l-1.86-1.08a.49.49,0,0,1-.25-.43v-6a.52.52,0,0,1,.25-.44l1.86-1.07a.55.55,0,0,1,.24-.07m0-.5h0a1,1,0,0,0-.49.14L13.16,8.26a1,1,0,0,0-.5.87v6a1,1,0,0,0,.5.87L15,17.08a1,1,0,0,0,.49.13,1,1,0,0,0,1-1V8.06a1,1,0,0,0-1-1Z"/><path class="cls-1" d="M13.16,28.79a.69.69,0,0,1-.37-.1l-1.86-1.07a.76.76,0,0,1,0-1.3L18,22.24a.79.79,0,0,1,.37-.1.75.75,0,0,1,.75.75V25a.74.74,0,0,1-.37.65l-5.21,3A.75.75,0,0,1,13.16,28.79Z"/><path class="cls-2" d="M18.37,22.39a.5.5,0,0,1,.5.5V25a.5.5,0,0,1-.25.44L16,27h0l-2.61,1.5a.43.43,0,0,1-.25.07.47.47,0,0,1-.25-.07L11.06,27.4a.5.5,0,0,1,0-.86l2.1-1.22h0L16,23.67l2.1-1.21a.47.47,0,0,1,.25-.07m0-.5a1,1,0,0,0-.5.14l-2.1,1.21-2.86,1.65-2.1,1.21a1,1,0,0,0-.5.87,1,1,0,0,0,.5.87l1.85,1.07a1.13,1.13,0,0,0,.5.13,1.06,1.06,0,0,0,.5-.13l2.61-1.51,2.6-1.5a1,1,0,0,0,.5-.87V22.89a1,1,0,0,0-1-1Z"/><rect class="cls-3" width="37.74" height="37.74"/></g></g></svg>